<svg height="512pt" viewBox="0 0 512 512" width="512pt" xmlns="http://www.w3.org/2000/svg"><path d="m416 512h-320c-53.023438 0-96-42.976562-96-96v-320c0-53.023438 42.976562-96 96-96h320c53.023438 0 96 42.976562 96 96v320c0 53.023438-42.976562 96-96 96zm0 0" fill="#e3f8fa"/><path d="m348.816406 265.121094-5.726562-16.273438-61.792969 61.792969c-6.050781 6.03125-14.097656 9.359375-22.625 9.359375-8.542969 0-16.574219-3.328125-22.625-9.375l-45.328125-45.328125c-6.046875-6.050781-9.375-14.082031-9.375-22.625s3.328125-16.574219 9.375-22.625c6.050781-6.046875 14.082031-9.375 22.625-9.375s16.578125 3.328125 22.625 9.375l22.703125 22.707031 60.847656-60.851562-4.09375-11.628906-1.890625-11.28125c-1.199218-7.230469-5.949218-13.230469-12.734375-16.046876-6.800781-2.832031-14.402343-1.953124-20.367187 2.335938l-29.648438 21.453125-29.96875-21.503906c-6.015625-4.238281-13.632812-5.085938-20.402344-2.253907-6.71875 2.816407-11.4375 8.800782-12.621093 15.984376l-5.808594 36.128906-36.335937 6.03125c-7.234376 1.183594-13.214844 5.949218-16.03125 12.734375-2.816407 6.785156-1.953126 14.402343 2.335937 20.367187l21.453125 29.648438-21.503906 29.96875c-4.238282 6.015625-5.085938 13.648437-2.253906 20.398437 2.816406 6.722657 8.800781 11.441407 15.984374 12.625l36.128907 5.808594 6.046875 36.335937c1.183594 7.214844 5.902344 13.199219 12.625 16.015626 6.765625 2.832031 14.398437 1.984374 20.460937-2.304688l29.648438-21.453125 29.890625 21.453125c3.664062 2.609375 7.917968 3.953125 12.238281 3.953125 2.734375 0 5.488281-.542969 8.128906-1.632813 6.785157-2.816406 11.535157-8.800781 12.734375-16.015624l5.808594-36.128907 36.335938-6.03125c7.214843-1.183593 13.183593-5.902343 16.015624-12.625 2.832032-6.75 1.984376-14.382812-2.304687-20.460937zm0 0" fill="#26c6da"/><path d="m258.671875 298.671875c-2.734375 0-5.457031-1.039063-7.535156-3.121094l-45.328125-45.328125c-4.160156-4.160156-4.160156-10.910156 0-15.085937s10.910156-4.160157 15.085937 0l37.792969 37.792969 107.121094-107.121094c4.160156-4.160156 10.910156-4.160156 15.085937 0s4.160157 10.910156 0 15.085937l-114.671875 114.671875c-2.09375 2.050782-4.832031 3.105469-7.550781 3.105469zm0 0" fill="#8ce1eb"/></svg>