<svg height="512pt" viewBox="0 0 512 512" width="512pt" xmlns="http://www.w3.org/2000/svg"><path d="m416 512h-320c-53.023438 0-96-42.976562-96-96v-320c0-53.023438 42.976562-96 96-96h320c53.023438 0 96 42.976562 96 96v320c0 53.023438-42.976562 96-96 96zm0 0" fill="#e3f8fa"/><path d="m352 384h-192c-17.648438 0-32-14.351562-32-32v-42.671875c0-5.886719 4.785156-10.671875 10.671875-10.671875s10.671875 4.785156 10.671875 10.671875v42.671875c0 5.886719 4.785156 10.671875 10.671875 10.671875h192c5.886719 0 10.671875-4.785156 10.671875-10.671875v-42.671875c0-5.886719 4.785156-10.671875 10.671875-10.671875s10.640625 4.785156 10.640625 10.671875v42.671875c0 17.648438-14.351562 32-32 32zm0 0" fill="#8ce1eb"/><path d="m306.207031 263.535156-42.671875 42.671875c-4.160156 4.160157-10.910156 4.160157-15.085937 0l-42.671875-42.671875c-3.058594-3.054687-3.96875-7.632812-2.320313-11.632812 1.648438-3.980469 5.535157-6.574219 9.855469-6.574219h32v-106.65625c.015625-5.902344 4.800781-10.671875 10.6875-10.671875s10.671875 4.785156 10.671875 10.671875v106.671875h32c4.320313 0 8.207031 2.59375 9.855469 6.578125 1.648437 3.980469.738281 8.574219-2.320313 11.613281zm0 0" fill="#26c6da"/></svg>