<svg width="976.2mm" height="199.11mm" version="1.1" viewBox="0 0 976.2 199.11" xmlns="http://www.w3.org/2000/svg">
 <g transform="translate(665.65 506.95)">
  <g fill="#f60" stroke-width=".26458" style="font-feature-settings:normal;font-variant-caps:normal;font-variant-ligatures:normal;font-variant-numeric:normal" aria-label="moodir">
   <path d="m-517.03 171.38v13.219q0 3.1319-1.4203 4.6978-1.4203 1.5659-3.7509 1.5659-2.2578 0-3.6781-1.5659-1.3838-1.5659-1.3838-4.6978v-15.841q0-3.7509-0.25492-5.8267-0.25492-2.0758-1.3838-3.3868-1.1289-1.3474-3.5689-1.3474-4.8799 0-6.4458 3.3504-1.5295 3.3504-1.5295 9.6141v13.438q0 3.0954-1.4203 4.6978-1.3838 1.5659-3.6781 1.5659-2.2578 0-3.7145-1.5659-1.4202-1.6023-1.4202-4.6978v-28.442q0-2.8041 1.2746-4.2608 1.311-1.4567 3.4232-1.4567 2.0393 0 3.3868 1.3838 1.3838 1.3474 1.3838 3.7509v0.94684q2.5856-3.0954 5.5354-4.5521 2.9498-1.4567 6.555-1.4567 3.751 0 6.4458 1.4931t4.4429 4.5157q2.5128-3.059 5.3897-4.5157 2.8769-1.4931 6.373-1.4931 4.0787 0 7.0285 1.6023 2.9498 1.6024 4.4064 4.5885 1.2746 2.6948 1.2746 8.4851v19.41q0 3.1319-1.4203 4.6978-1.4203 1.5659-3.7509 1.5659-2.2578 0-3.7145-1.5659-1.4203-1.6023-1.4203-4.6978v-16.715q0-3.2047-0.29134-5.1348-0.25492-1.9301-1.4567-3.2411-1.2018-1.311-3.6417-1.311-1.9665 0-3.7509 1.1653-1.748 1.1653-2.7313 3.1318-1.0925 2.5128-1.0925 8.8857z"/>
   <path d="m-446.89 170.65q0 4.4429-1.3838 8.1938-1.3838 3.7509-4.0059 6.4458-2.622 2.6949-6.2637 4.1515-3.6417 1.4203-8.1938 1.4203-4.5157 0-8.121-1.4567-3.6053-1.4567-6.2637-4.1515-2.622-2.7313-4.0059-6.4094-1.3474-3.7145-1.3474-8.1938 0-4.5157 1.3838-8.2666 1.3838-3.7509 3.9694-6.4094 2.5856-2.6584 6.2637-4.0787 3.6781-1.4567 8.121-1.4567 4.5157 0 8.1938 1.4567t6.3001 4.1515q2.622 2.6948 3.9694 6.4094 1.3838 3.7145 1.3838 8.1938zm-9.9782 0q0-6.0816-2.6948-9.4684-2.6584-3.3868-7.1741-3.3868-2.9134 0-5.1348 1.5295-2.2214 1.4931-3.4232 4.4429t-1.2018 6.8828q0 3.8966 1.1653 6.81 1.2018 2.9134 3.3868 4.4793 2.2214 1.5295 5.2076 1.5295 4.5157 0 7.1741-3.3868 2.6948-3.4232 2.6948-9.432z"/>
   <path d="m-401.88 170.65q0 4.4429-1.3838 8.1938-1.3838 3.7509-4.0059 6.4458-2.622 2.6949-6.2637 4.1515-3.6417 1.4203-8.1938 1.4203-4.5157 0-8.121-1.4567-3.6053-1.4567-6.2637-4.1515-2.622-2.7313-4.0059-6.4094-1.3474-3.7145-1.3474-8.1938 0-4.5157 1.3838-8.2666 1.3838-3.7509 3.9694-6.4094 2.5856-2.6584 6.2637-4.0787 3.6781-1.4567 8.121-1.4567 4.5157 0 8.1938 1.4567t6.3001 4.1515q2.622 2.6948 3.9694 6.4094 1.3838 3.7145 1.3838 8.1938zm-9.9782 0q0-6.0816-2.6949-9.4684-2.6584-3.3868-7.1741-3.3868-2.9134 0-5.1348 1.5295-2.2214 1.4931-3.4232 4.4429t-1.2018 6.8828q0 3.8966 1.1653 6.81 1.2018 2.9134 3.3868 4.4793 2.2214 1.5295 5.2076 1.5295 4.5157 0 7.1741-3.3868 2.6949-3.4232 2.6949-9.432z"/>
   <path d="m-366.84 185.18v-0.98325q-2.0029 2.2943-3.9694 3.7509-1.9301 1.4203-4.2244 2.1486-2.2578 0.76475-4.9527 0.76475-3.5688 0-6.6279-1.4931-3.0226-1.5295-5.244-4.3336-2.2214-2.8041-3.3868-6.5915-1.1289-3.7874-1.1289-8.1938 0-9.3227 4.5521-14.53 4.5521-5.2076 11.981-5.2076 4.2972 0 7.247 1.4931 2.9498 1.4567 5.7539 4.5157v-14.676q0-3.059 1.2018-4.6249 1.2382-1.5659 3.496-1.5659t3.4596 1.4567q1.2382 1.4203 1.2382 4.2244v43.846q0 2.8405-1.311 4.2608t-3.3868 1.4203q-2.0394 0-3.3868-1.4567-1.311-1.4931-1.311-4.2244zm-19.556-14.603q0 4.0423 1.2382 6.8828 1.2746 2.8405 3.4596 4.2972 2.185 1.4203 4.7706 1.4203 2.622 0 4.7706-1.3474 2.185-1.3838 3.4596-4.188 1.311-2.8405 1.311-7.0649 0-3.9694-1.311-6.81-1.2746-2.8769-3.496-4.37-2.185-1.5295-4.807-1.5295-2.7313 0-4.8799 1.5659-2.1486 1.5295-3.3504 4.4429-1.1653 2.8769-1.1653 6.7007z"/>
   <path d="m-337.53 156.09v28.733q0 2.9862-1.4203 4.5157t-3.6053 1.5295q-2.185 0-3.5689-1.5659-1.3474-1.5659-1.3474-4.4793v-28.442q0-2.9498 1.3474-4.4429 1.3838-1.4931 3.5689-1.4931 2.185 0 3.6053 1.4931 1.4203 1.4931 1.4203 4.1515zm-4.9163-10.27q-2.0758 0-3.5689-1.2746-1.4567-1.2746-1.4567-3.6053 0-2.1122 1.4931-3.4596 1.5295-1.3838 3.5324-1.3838 1.9301 0 3.4232 1.2382 1.4931 1.2382 1.4931 3.6053 0 2.2943-1.4567 3.6053-1.4567 1.2746-3.4596 1.2746z"/>
   <path d="m-317.35 176.52v8.303q0 3.0226-1.4203 4.5521-1.4203 1.4931-3.6053 1.4931-2.1486 0-3.5324-1.5295-1.3838-1.5295-1.3838-4.5157v-27.677q0-6.7007 4.8434-6.7007 2.4764 0 3.5689 1.5659 1.0925 1.5659 1.2018 4.625 1.7844-3.059 3.6417-4.625 1.8937-1.5659 5.0255-1.5659t6.0816 1.5659 2.9498 4.1515q0 1.8208-1.2746 3.0226-1.2382 1.1653-2.6948 1.1653-0.54625 0-2.6584-0.6555-2.0758-0.69192-3.6781-0.69192-2.185 0-3.5689 1.1653-1.3838 1.1289-2.1486 3.3868-0.76475 2.2578-1.0561 5.3897-0.29133 3.0954-0.29133 7.5747z"/>
  </g>
  <g transform="matrix(.26458 0 0 .26458 99.833 502.29)" fill="#ffb380">
   <g fill="#ffb380">
    <path d="m35.243 94.888c12.885 19.483 24.198 42.637 25.982 46.618 0.511 1.148 1.316 3.856 2.219 7.169 6.282-8.877 13.946-16.214 23.105-21.599 13.07-7.68 28.093-10.845 44.312-10.084-3.916-6.217-7.479-12.619-9.192-17.601-4.4-12.776-20.348-65.53-29.676-88.053-9.323-22.523-44.834-6.494-65.47 5.238s-21.793 26.189-19.694 30.171c2.094 3.981 15.529 28.658 28.414 48.141z"/>
    <path d="m114.37 167.48c27.446-11.313 33.314 2.41 33.314 2.41 8.697-8.066 2.622-17.601 2.622-17.601s2.197-4.085-1.36-8.278c-2.176-2.556-9.187-11.835-15.322-21.582-16.219-0.761-31.242 2.404-44.312 10.084-9.159 5.385-16.823 12.717-23.105 21.599 2.235 8.186 5.102 20.179 5.847 22.268 1.05 2.932 3.769 6.913 6.288 7.435 2.513 0.522 3.981 2.932 3.981 2.932 3.247 6.598 13.407 7.016 13.407 7.016s-8.811-14.97 18.64-26.283z"/>
    <path d="m319.16 225.66c-8.409-6.576-19.662-9.736-28.631-15.556-23.187-15.044 6.848-28.903 16.79-37.867 16.883-15.219 21.316-32.754 14.326-54.048-2.186-6.663-6.924-13.69-4.737-7.033 11.95 36.42-26.026 53.825-45.313 74.189-7.103 7.5-6.124 15.632 1.256 23.116 14.278 14.479 57.23 26.7 30.606 49.207-18.661 15.773-47.624 17.187-68.309 30.508-2.796 1.8-3.122 6.641-0.31 8.61 20.315 14.207 48.44 10.786 68.456 23.687-34.527 10.389-70.746 3.612-106.25 0.359 0.141-1.006 0.016-1.86 0.016-1.86-4.514-27.658-4.971-33.657-2.877-47.488 2.094-13.826 0-15.088 0-15.088-21.37-29.333-47.331-84.73-47.331-84.73-3.459-5.76-17.182-8.202-34.152-0.631-17.601 7.859-16.344 18.645-16.344 18.645l29.86 88.026c1.05 2.828 5.869 4.188 5.869 4.188 27.973 8.066 50.774 36.333 53.814 40.733s5.238 2.725 5.238 2.725l-32.623-73.063c-2.491-0.571-5.031-2.736-6.527-5.945-2.165-4.65-1.305-9.633 1.92-11.134s7.593 1.05 9.758 5.7c1.632 3.503 1.539 7.19 0.022 9.442l31.101 70.273c-0.228-0.022-0.457-0.044-0.685-0.065-6.94-0.598 0.343 8.262 19.842 10.71 43.458 5.455 60.455 5.118 102.34-3.753 4.297-0.908 4.373-6.396 1.55-9.274-18.547-18.928-45.704-14.892-67.939-25.232 28.287-11.91 105.89-38.709 69.27-67.351z"/>
   </g>
  </g>
  <g transform="matrix(.138 0 0 .138 65.169 522.34)" fill="#f95" stroke-width="1.9235">
   <path d="m235.38 315.26c12.286-12.286 12.286-32.276 0-44.561-12.286-12.286-32.276-12.286-44.562 0-12.285 12.285-12.285 32.275 1e-3 44.561 12.286 12.285 32.276 12.286 44.561 0z"/>
   <path d="m362.09 398.64c-0.228-0.923-19.693-83.871 39.132-163.58l-125.98-125.98c-29.94 22.211-63.649 35.842-100.61 40.607-36.542 4.712-62.791-1.462-63.011-1.515-7.849-1.939-15.822 2.691-18.028 10.469l-93.493 329.63 160.53-163.21c-14.483-23.681-11.503-55.109 8.97-75.582 23.983-23.983 63.005-23.983 86.988 0s23.983 63.005 0 86.988c-20.174 20.174-50.989 23.372-74.543 9.605l-161.59 164.29 331.16-93.692c7.783-2.203 12.418-10.179 10.478-18.032z"/>
   <path d="m434.74 226.16-150.63-150.63c-5.858-5.858-6.272-14.942-0.924-20.289l51.483-51.483c5.347-5.347 14.431-4.933 20.289 0.924l150.63 150.63c5.858 5.858 6.272 14.942 0.924 20.289l-51.483 51.483c-5.347 5.348-14.431 4.934-20.288-0.924z"/>
  </g>
  <g transform="matrix(.18894 0 0 .18894 -650.23 112.9)" fill="#f60" stroke-width="1.4004">
   <g fill="#f60" stroke-width="1.4004">
    <g fill="#f60" stroke-width="1.4004">
     <path d="m491.99 79.216c-2.775-4.641-7.351-7.895-12.631-8.957l-280.18-67.547c-9.234-1.79-18.344 3.311-21.54 12.134l-106.8 271.32 35.654 12.993 101.21-257.98 243.45 62.123c-15.204 47.134-51.383 145.51-86.064 237.11-30.236 79.921-47.635 107.29-80.705 112.88-0.039-0.039-0.075-0.077-0.075-0.135-67.586 9.474-66.373-76.688-66.373-76.688l-215.85-87.191c-15.339 97.224 59.367 120.61 59.367 120.61l158.03 71.75c0.038 0.02 24.708 11.771 51.521 10.563 72.323-1.703 97.739-54.218 129.58-138.35 46.008-121.59 92.705-257.84 93.164-259.28 1.646-5.155 0.996-10.715-1.76-15.346z"/>
     <path d="m364.27 188.63c1.646 0.45 3.35 0.689 5.033 0.689 8.324 0 15.94-5.55 18.274-13.971 2.774-10.115-3.216-20.564-13.317-23.32l-82.233-25.381c-9.989-2.765-20.555 3.177-23.311 13.282-2.757 10.114 3.178 20.564 13.318 23.33z"/>
     <path d="m235.78 215.94c-3.296 9.962 2.055 20.69 11.989 24.015l81.802 29.232c1.986 0.661 3.938 0.958 5.907 0.969 7.979 0.042 15.453-4.991 18.117-12.96 3.305-9.935-2.036-20.679-12.01-24.002l-81.771-29.213c-9.993-3.307-20.699 2.043-24.034 11.959z"/>
     <path d="m228.59 283.18c-9.952-3.33-20.698 2.104-23.952 12.096-3.272 9.914 2.182 20.67 12.134 23.923l81.973 29.111c1.975 0.669 3.942 0.956 5.936 0.956 7.961 0 15.387-5.07 18.01-13.033 3.271-9.971-2.163-20.707-12.115-23.961z"/>
     <path d="m225.55 104.52c11.617 0 21.043 9.167 21.043 20.459 0 11.301-9.426 20.458-21.043 20.458-11.626 0-21.052-9.158-21.052-20.458 1e-3 -11.292 9.426-20.459 21.052-20.459z"/>
     <path d="m195.78 180.57c11.627 0 21.043 9.158 21.043 20.449 0 11.282-9.416 20.439-21.043 20.439-11.626 0-21.052-9.157-21.052-20.439 0-11.29 9.426-20.449 21.052-20.449z"/>
     <path d="m164.03 259.04c11.627 0 21.052 9.168 21.052 20.479 0 11.29-9.425 20.438-21.052 20.438-11.626 0-21.052-9.146-21.052-20.438 0-11.311 9.426-20.479 21.052-20.479z"/>
    </g>
   </g>
  </g>
  <g stroke-width=".26458" style="font-feature-settings:normal;font-variant-caps:normal;font-variant-ligatures:normal;font-variant-numeric:normal" aria-label="Rapidoc">
   <path d="m-365.21-350.16-23.927-34.561h-26.408v34.561h-28.712v-124.07h53.703q16.483 0 28.535 5.4944 12.229 5.4944 18.787 15.597 6.5578 10.103 6.5578 23.927t-6.735 23.927q-6.5578 9.9253-18.787 15.242l27.826 39.878zm-0.53171-79.048q0-10.457-6.735-15.951-6.735-5.6716-19.673-5.6716h-23.395v43.246h23.395q12.938 0 19.673-5.6716t6.735-15.951z"/>
   <path d="m-219.27-445.51v95.354h-26.408v-10.989q-10.28 12.407-29.776 12.407-13.47 0-24.459-6.0261-10.811-6.0261-17.015-17.192t-6.2033-25.877q0-14.711 6.2033-25.877t17.015-17.192q10.989-6.0261 24.459-6.0261 18.255 0 28.535 11.52v-10.103zm-51.399 74.085q10.457 0 17.369-7.0895 6.9122-7.2667 6.9122-19.319 0-12.052-6.9122-19.142-6.9122-7.2667-17.369-7.2667-10.634 0-17.546 7.2667-6.9122 7.0895-6.9122 19.142 0 12.052 6.9122 19.319 6.9122 7.0895 17.546 7.0895z"/>
   <path d="m-137.49-446.93q13.293 0 24.104 6.2033 10.989 6.0261 17.192 17.192 6.2033 10.989 6.2033 25.699 0 14.711-6.2033 25.877-6.2033 10.989-17.192 17.192-10.811 6.0261-24.104 6.0261-18.255 0-28.712-11.52v44.487h-27.649v-129.74h26.408v10.989q10.28-12.407 29.953-12.407zm-4.7854 75.503q10.634 0 17.369-7.0895 6.9122-7.2667 6.9122-19.319 0-12.052-6.9122-19.142-6.735-7.2667-17.369-7.2667t-17.546 7.2667q-6.735 7.0895-6.735 19.142 0 12.052 6.735 19.319 6.9122 7.0895 17.546 7.0895z"/>
   <path d="m-71.651-445.51h27.649v95.354h-27.649zm13.824-13.293q-7.6212 0-12.407-4.4309-4.7854-4.4309-4.7854-10.989 0-6.5578 4.7854-10.989 4.7854-4.4309 12.407-4.4309t12.407 4.2537q4.7854 4.2537 4.7854 10.634 0 6.9122-4.7854 11.52-4.7854 4.4309-12.407 4.4309z"/>
   <path d="m78.784-481.67v131.51h-26.408v-10.989q-10.28 12.407-29.776 12.407-13.47 0-24.459-6.0261-10.811-6.0261-17.015-17.192t-6.2033-25.877q0-14.711 6.2033-25.877t17.015-17.192q10.989-6.0261 24.459-6.0261 18.255 0 28.535 11.52v-46.259zm-51.399 110.24q10.457 0 17.369-7.0895 6.9122-7.2667 6.9122-19.319 0-12.052-6.9122-19.142-6.9122-7.2667-17.369-7.2667-10.634 0-17.546 7.2667-6.9122 7.0895-6.9122 19.142 0 12.052 6.9122 19.319 6.9122 7.0895 17.546 7.0895z"/>
   <path d="m149.57-348.74q-15.065 0-27.117-6.2033-11.875-6.3805-18.61-17.546-6.735-11.166-6.735-25.345t6.735-25.345q6.735-11.166 18.61-17.369 12.052-6.3805 27.117-6.3805 15.065 0 26.94 6.3805 11.875 6.2033 18.61 17.369t6.735 25.345-6.735 25.345-18.61 17.546q-11.875 6.2033-26.94 6.2033zm0-22.686q10.634 0 17.369-7.0895 6.9122-7.2667 6.9122-19.319 0-12.052-6.9122-19.142-6.735-7.2667-17.369-7.2667-10.634 0-17.546 7.2667-6.9122 7.0895-6.9122 19.142 0 12.052 6.9122 19.319 6.9122 7.0895 17.546 7.0895z"/>
   <path d="m266.25-348.74q-15.242 0-27.472-6.2033-12.052-6.3805-18.964-17.546-6.735-11.166-6.735-25.345t6.735-25.345q6.9122-11.166 18.964-17.369 12.229-6.3805 27.472-6.3805 15.065 0 26.231 6.3805 11.343 6.2033 16.483 17.901l-21.446 11.52q-7.444-13.116-21.446-13.116-10.811 0-17.901 7.0895-7.0895 7.0895-7.0895 19.319 0 12.229 7.0895 19.319 7.0895 7.0895 17.901 7.0895 14.179 0 21.446-13.116l21.446 11.698q-5.1399 11.343-16.483 17.724-11.166 6.3805-26.231 6.3805z"/>
  </g>
  <g transform="matrix(.38673 -.055364 .055364 .38673 -682.46 -496.96)" fill="#f60" stroke-width=".67725">
   <g fill="#f60" stroke-width=".67725">
    <g fill="#f60" stroke-width=".67725">
     <path d="m491.99 79.216c-2.775-4.641-7.351-7.895-12.631-8.957l-280.18-67.547c-9.234-1.79-18.344 3.311-21.54 12.134l-106.8 271.32 35.654 12.993 101.21-257.98 243.45 62.123c-15.204 47.134-51.383 145.51-86.064 237.11-30.236 79.921-47.635 107.29-80.705 112.88-0.039-0.039-0.075-0.077-0.075-0.135-67.586 9.474-66.373-76.688-66.373-76.688l-215.85-87.191c-15.339 97.224 59.367 120.61 59.367 120.61l158.03 71.75c0.038 0.02 24.708 11.771 51.521 10.563 72.323-1.703 97.739-54.218 129.58-138.35 46.008-121.59 92.705-257.84 93.164-259.28 1.646-5.155 0.996-10.715-1.76-15.346z"/>
     <path d="m364.27 188.63c1.646 0.45 3.35 0.689 5.033 0.689 8.324 0 15.94-5.55 18.274-13.971 2.774-10.115-3.216-20.564-13.317-23.32l-82.233-25.381c-9.989-2.765-20.555 3.177-23.311 13.282-2.757 10.114 3.178 20.564 13.318 23.33z"/>
     <path d="m235.78 215.94c-3.296 9.962 2.055 20.69 11.989 24.015l81.802 29.232c1.986 0.661 3.938 0.958 5.907 0.969 7.979 0.042 15.453-4.991 18.117-12.96 3.305-9.935-2.036-20.679-12.01-24.002l-81.771-29.213c-9.993-3.307-20.699 2.043-24.034 11.959z"/>
     <path d="m228.59 283.18c-9.952-3.33-20.698 2.104-23.952 12.096-3.272 9.914 2.182 20.67 12.134 23.923l81.973 29.111c1.975 0.669 3.942 0.956 5.936 0.956 7.961 0 15.387-5.07 18.01-13.033 3.271-9.971-2.163-20.707-12.115-23.961z"/>
     <path d="m225.55 104.52c11.617 0 21.043 9.167 21.043 20.459 0 11.301-9.426 20.458-21.043 20.458-11.626 0-21.052-9.158-21.052-20.458 1e-3 -11.292 9.426-20.459 21.052-20.459z"/>
     <path d="m195.78 180.57c11.627 0 21.043 9.158 21.043 20.449 0 11.282-9.416 20.439-21.043 20.439-11.626 0-21.052-9.157-21.052-20.439 0-11.29 9.426-20.449 21.052-20.449z"/>
     <path d="m164.03 259.04c11.627 0 21.052 9.168 21.052 20.479 0 11.29-9.425 20.438-21.052 20.438-11.626 0-21.052-9.146-21.052-20.438 0-11.311 9.426-20.479 21.052-20.479z"/>
    </g>
   </g>
  </g>
 </g>
</svg>
